<?xml version="1.0" encoding="UTF-8" standalone="no"?>
<svg
   version="1.1"
   id="Calque_1"
   x="0px"
   y="0px"
   viewBox="0 0 32 32"
   enable-background="new 0 0 32 32"
   xml:space="preserve"
   sodipodi:docname="appearance.svg"
   inkscape:version="1.2.2 (b0a8486541, 2022-12-01)"
   xmlns:inkscape="http://www.inkscape.org/namespaces/inkscape"
   xmlns:sodipodi="http://sodipodi.sourceforge.net/DTD/sodipodi-0.dtd"
   xmlns="http://www.w3.org/2000/svg"
   xmlns:svg="http://www.w3.org/2000/svg"><sodipodi:namedview
   id="namedview1"
   pagecolor="#ffffff"
   bordercolor="#000000"
   borderopacity="0.25"
   inkscape:showpageshadow="2"
   inkscape:pageopacity="0.0"
   inkscape:pagecheckerboard="0"
   inkscape:deskcolor="#d1d1d1"
   inkscape:zoom="16"
   inkscape:cx="-7.8125"
   inkscape:cy="17.6875"
   inkscape:window-width="1920"
   inkscape:window-height="1011"
   inkscape:window-x="0"
   inkscape:window-y="0"
   inkscape:window-maximized="1"
   inkscape:current-layer="g7954"
   showgrid="false"
   showguides="false" /><defs
   id="defs45" />

<g
   id="g7954"><path
     fill="none"
     d="M 8.9659036,28 H 22.965904 c 1.1,0 2,-0.9 2,-2 V 15 14 H 6.9659036 v 1 11 c 0,1.1 0.9,2 2,2 z"
     id="path8" /><rect
     style="fill:#000000;fill-opacity:0;stroke:none;stroke-width:0.000000879999;stroke-linecap:round;stroke-linejoin:round"
     id="rect2311"
     width="29.020048"
     height="4"
     x="1.4899759"
     y="7.1611009" /><path
     id="path2-6"
     d="M 28,6 C 28,4.9 27.1,4 26,4 H 6 C 4.9,4 4,4.9 4,6 v 20 c 0,1.1 0.9,2 2,2 h 20 c 1.1,0 2,-0.9 2,-2 z"
     fill="#f2f2f2"
     clip-rule="evenodd"
     fill-rule="evenodd" /><g
     id="g12"><path
       id="path6"
       d="m 6,28 h 20 c 1.1,0 2,-0.9 2,-2 V 9 6 C 28,4.9 27.1,4 26,4 H 6 C 4.9,4 4,4.9 4,6 v 3 17 c 0,1.1 0.9,2 2,2 z"
       fill="none" /><path
       id="path8-7"
       d="M 26,0 H 6 C 2.7,0 0,2.7 0,6 V 9 H 4 V 6 C 4,4.9 4.9,4 6,4 h 20 c 1.1,0 2,0.9 2,2 v 3 h 4 V 6 C 32,2.7 29.3,0 26,0 Z"
       fill="#39b54a" /><path
       id="path10-5"
       d="m 28,26 c 0,1.1 -0.9,2 -2,2 H 6 C 4.9,28 4,27.1 4,26 V 9 H 0 v 17 c 0,3.3 2.7,6 6,6 h 20 c 3.3,0 6,-2.7 6,-6 V 9 h -4 z"
       fill="#8c6239" /></g><g
     id="g2657"
     transform="rotate(31.454004,7.3789216,28.015625)"><path
       id="path5"
       style="fill:#c1272d;fill-opacity:1;stroke-width:14.5284"
       d="M 8.413071,2.4595861 A 2.5,8.0000002 0 0 0 6.3465633,10.337319 2.5,8.0000002 0 0 0 7.4458626,16.960111 C 7.7356137,16.430277 8.2119852,16.01524 8.9151067,15.96976 9.5063364,15.93152 9.9629895,16.336614 10.250228,16.958042 A 2.5,8.0000002 0 0 0 11.346521,10.337343 2.5,8.0000002 0 0 0 8.8459304,2.3382251 2.5,8.0000002 0 0 0 8.413071,2.4595861 Z" /><path
       id="path5-6"
       style="fill:#c1272d;fill-opacity:1;stroke-width:9.6096"
       d="m 9.1439767,17.889764 c -1.3309058,0.08609 -1.8604029,1.491611 -1.8189608,2.506407 0.045613,1.116922 1.4392755,2.225341 0.1366377,3.772111 1.6687108,-0.08051 2.5726364,-1.0077 3.1912724,-2.25073 0.506557,-1.849334 -0.145661,-4.115969 -1.5089493,-4.027788 z"
       sodipodi:nodetypes="ssccs" /></g></g></svg>
