<?xml version="1.0" encoding="UTF-8" standalone="no"?>
<svg
  width="48"
  height="48"
  version="1.1"
  viewBox="0 0 12.7 12.7"
  id="svg_rainbow"
  xmlns="http://www.w3.org/2000/svg"
  xmlns:svg="http://www.w3.org/2000/svg"
  xmlns:rdf="http://www.w3.org/1999/02/22-rdf-syntax-ns#"
  xmlns:cc="http://creativecommons.org/ns#"
  xmlns:dc="http://purl.org/dc/elements/1.1/">
  <title>Prism Launcher Logo</title>
  <g stroke-width="0.26458">
    <path
      d="M 6.35,0.52917 3.8292,4.89477 6.35,6.34997 8.8703,4.89477 8.97985,1.79517 C 7.82875,1.13058 6.64105,0.52907 6.35005,0.52907 Z"
      fill="#df6277"
      id="path6" />
    <path
      d="M 8.9798,1.7952 6.35,6.35 8.8703,7.8052 11.3911,3.4396 C 11.24558,3.18755 10.131,2.45985 8.9799,1.7953 Z"
      fill="#fb9168"
      id="path8" />
    <path
      d="M 11.391,3.4396 6.35,6.35 8.8703,7.8052 11.6092,6.35 c 0,-1.3292 -0.07255,-2.6584 -0.21808,-2.9104 z"
      fill="#f3db6c"
      id="path10" />
    <path
      d="m 6.35,6.35 v 2.9104 h 5.041 C 11.53652,9.00835 11.60907,7.6792 11.60908,6.35 Z"
      fill="#7ab392"
      id="path12" />
    <path
      d="m 6.35,6.35 v 2.9104 l 2.6298,1.6443 c 1.1511,-0.66459 2.2657,-1.3923 2.4112,-1.6443 z"
      fill="#4b7cbc"
      id="path14" />
    <path
      d="M 6.35,6.35 3.8292,7.8052 6.35,12.1708 c 0.29104,0 1.4787,-0.60148 2.6298,-1.2661 z"
      fill="#6f488c"
      id="path16" />
    <path
      d="M 3.8292,4.8948 1.3089,9.2604 c 0.29104,0.5041 4.459,2.9104 5.041,2.9104 V 6.35 Z"
      fill="#4d3f33"
      id="path18" />
    <path
      d="m 1.309,3.4396 c -0.29104,0.5041 -0.29104,5.3167 0,5.8208 L 6.35,6.35 V 3.4396 Z"
      fill="#7a573b"
      id="path20" />
    <path
      d="m 6.35,0.52917 c -0.58208,-2e-8 -4.75,2.4063 -5.041,2.9104 l 5.041,2.9104 z"
      fill="#99cd61"
      id="path22" />
  </g>
  <metadata
    id="metadata64">
    <rdf:RDF>
      <cc:Work
        rdf:about="">
        <dc:title>Prism Launcher Logo</dc:title>
        <dc:date>19/10/2022</dc:date>
        <dc:creator>
          <cc:Agent>
            <dc:title>Prism Launcher</dc:title>
          </cc:Agent>
        </dc:creator>
        <dc:contributor>
          <cc:Agent>
            <dc:title>AutiOne, Boba, ely, Fulmine, gon sawa, Pankakes, tobimori, Zeke</dc:title>
          </cc:Agent>
        </dc:contributor>
        <dc:source>https://github.com/PrismLauncher/PrismLauncher</dc:source>
        <dc:publisher>
          <cc:Agent>
            <dc:title>Prism Launcher</dc:title>
          </cc:Agent>
        </dc:publisher>
        <cc:license
          rdf:resource="http://creativecommons.org/licenses/by-sa/4.0/" />
      </cc:Work>
      <cc:License
        rdf:about="http://creativecommons.org/licenses/by-sa/4.0/">
        <cc:permits
          rdf:resource="http://creativecommons.org/ns#Reproduction" />
        <cc:permits
          rdf:resource="http://creativecommons.org/ns#Distribution" />
        <cc:requires
          rdf:resource="http://creativecommons.org/ns#Notice" />
        <cc:requires
          rdf:resource="http://creativecommons.org/ns#Attribution" />
        <cc:permits
          rdf:resource="http://creativecommons.org/ns#DerivativeWorks" />
        <cc:requires
          rdf:resource="http://creativecommons.org/ns#ShareAlike" />
      </cc:License>
    </rdf:RDF>
  </metadata>
</svg>